<?xml version="1.0" standalone="no"?>
<!DOCTYPE svg PUBLIC "-//W3C//DTD SVG 20010904//EN"
 "http://www.w3.org/TR/2001/REC-SVG-20010904/DTD/svg10.dtd">
<svg version="1.0" xmlns="http://www.w3.org/2000/svg"
 width="621.000000pt" height="422.000000pt" viewBox="0 0 621.000000 422.000000"
 preserveAspectRatio="xMidYMid meet">

<g transform="translate(0.000000,422.000000) scale(0.100000,-0.100000)"
fill="#000000" stroke="none">
<path d="M4090 3934 c-74 -20 -205 -84 -257 -126 -23 -18 -62 -61 -87 -95 -25
-33 -50 -64 -55 -68 -6 -3 -11 -24 -11 -45 0 -35 5 -42 47 -72 159 -109 332
-369 389 -586 20 -76 37 -102 69 -102 52 0 59 54 26 194 -44 185 -145 377
-265 504 -27 29 -47 55 -43 58 3 3 36 1 74 -5 70 -11 184 -61 237 -104 l29
-23 -27 -66 c-30 -76 -32 -105 -10 -136 23 -33 48 -27 91 24 l39 47 38 -84
c97 -211 164 -498 201 -863 l6 -59 -77 6 c-211 18 -467 92 -672 193 -121 60
-132 67 -126 89 4 18 -7 37 -54 91 -111 129 -315 302 -390 331 -40 15 -47 15
-71 2 -37 -21 -39 -67 -5 -127 14 -26 112 -211 216 -412 196 -377 266 -503
350 -627 27 -40 46 -73 43 -73 -4 0 -50 35 -103 78 -216 174 -383 290 -484
337 -50 23 -60 24 -188 20 -287 -11 -420 -31 -563 -85 -31 -12 -64 -28 -72
-36 -23 -23 -19 -70 7 -88 30 -22 63 -20 203 9 157 33 151 33 158 -16 8 -58
96 -230 167 -324 l60 -80 -93 -21 c-50 -12 -122 -30 -159 -40 l-67 -18 -113
32 c-186 52 -283 88 -281 103 1 8 13 46 27 84 62 176 50 454 -28 700 -32 99
-37 108 -67 103 -42 -6 -48 -49 -46 -318 1 -227 0 -251 -21 -323 -26 -93 -50
-143 -62 -131 -5 5 -31 59 -58 119 -82 184 -147 313 -232 457 -44 76 -80 142
-80 147 0 15 -40 24 -54 11 -53 -43 -18 -166 156 -552 39 -87 69 -160 67 -163
-3 -2 -61 14 -129 36 -339 108 -514 131 -652 83 -97 -33 -169 -129 -154 -207
16 -85 112 -174 271 -251 276 -134 537 -153 769 -56 49 21 72 26 75 18 11 -34
160 -325 206 -403 95 -162 156 -213 198 -167 24 27 21 47 -17 111 -58 96 -240
501 -226 501 6 0 72 -18 147 -39 396 -112 750 -161 882 -122 79 23 113 79 72
120 -14 14 -33 19 -82 19 -92 0 -195 13 -178 22 13 7 290 63 374 76 39 5 40 5
65 -42 51 -98 89 -124 123 -86 44 48 -2 178 -129 365 -29 42 -50 77 -47 77 3
0 69 -53 147 -117 178 -149 215 -178 299 -237 l68 -49 -70 -66 c-58 -54 -71
-72 -71 -97 0 -48 53 -84 93 -63 12 7 67 40 122 74 55 34 152 89 215 123 115
60 333 152 362 152 13 0 17 -20 22 -107 26 -423 85 -636 195 -710 51 -34 133
-32 192 5 151 96 259 337 259 575 -1 157 -37 255 -129 348 -80 80 -143 103
-283 104 l-108 0 0 35 c0 34 2 36 118 102 64 36 167 91 228 121 92 46 113 61
124 87 16 39 5 75 -31 102 -21 16 -69 25 -235 43 -115 13 -209 24 -210 25 -1
0 -4 64 -8 142 -9 185 -39 447 -67 579 -28 135 -87 303 -138 391 -23 39 -41
73 -41 77 2 24 188 131 229 131 60 0 72 62 16 86 -19 7 -43 14 -54 14 -41 0
-149 -41 -220 -84 l-74 -44 -47 34 c-73 52 -171 94 -267 113 l-88 17 45 22
c124 59 265 86 344 64 81 -23 106 36 31 73 -54 26 -234 32 -315 9z m-668
-1167 c30 -24 35 -33 28 -48 -6 -10 -10 -28 -10 -41 0 -16 -12 -3 -40 47 -55
98 -53 102 22 42z m241 -326 c40 -26 86 -55 104 -65 25 -12 42 -36 77 -109 39
-82 234 -385 345 -538 l40 -55 -49 -37 c-27 -20 -53 -37 -57 -37 -9 1 -148
187 -236 315 -40 59 -332 537 -415 680 -3 6 22 -16 57 -48 35 -32 95 -79 134
-106z m522 -247 c94 -30 238 -61 328 -70 36 -4 69 -9 75 -13 5 -3 11 -43 14
-89 l5 -83 -126 -86 c-69 -47 -130 -87 -136 -89 -9 -4 -71 103 -223 378 -25
47 -37 78 -30 78 7 0 49 -12 93 -26z m-1081 -106 c14 -18 65 -82 113 -143 83
-105 183 -250 183 -264 0 -4 -51 -13 -112 -20 -62 -6 -133 -14 -158 -17 l-46
-6 -17 75 c-21 87 -99 250 -156 324 l-40 52 42 6 c34 4 124 18 159 24 4 0 19
-14 32 -31z m1756 8 c0 -5 -98 -66 -105 -66 -3 0 -5 16 -5 35 l0 35 55 0 c30
0 55 -2 55 -4z m-3496 -321 c131 -38 488 -177 478 -187 -4 -4 -46 -18 -92 -29
-163 -42 -353 -13 -541 82 -84 42 -139 83 -139 105 0 8 15 23 33 34 47 29 151
27 261 -5z m3236 -25 c-24 -15 -37 -11 -16 5 11 8 22 12 25 9 3 -3 -1 -9 -9
-14z m354 -131 c55 -15 117 -82 139 -148 37 -115 15 -278 -58 -428 -45 -93
-117 -183 -146 -183 -23 0 -65 49 -88 100 -40 92 -53 185 -58 427 -5 219 -4
231 13 236 36 9 159 7 198 -4z"/>
<path d="M5249 3699 c-15 -15 -19 -28 -14 -47 33 -135 36 -172 32 -332 -7
-229 -59 -446 -151 -629 -43 -83 -44 -104 -11 -136 32 -33 78 -33 108 -1 66
71 169 299 211 467 79 317 50 625 -64 684 -41 21 -86 19 -111 -6z"/>
<path d="M4935 3280 c-17 -19 -19 -42 -21 -238 -1 -136 2 -222 8 -229 19 -24
57 -15 77 18 35 58 66 205 66 316 0 94 -2 103 -24 127 -30 32 -80 35 -106 6z"/>
<path d="M750 2975 c-36 -38 -38 -112 -6 -208 55 -163 159 -341 264 -449 69
-72 103 -85 136 -52 28 27 19 66 -29 129 -65 86 -156 277 -210 443 -31 94 -53
146 -65 152 -31 17 -65 11 -90 -15z"/>
<path d="M1093 2775 c-37 -26 -38 -68 -4 -140 35 -76 105 -186 150 -238 46
-51 93 -51 120 1 11 20 3 42 -61 183 -40 88 -83 171 -95 185 -26 28 -77 32
-110 9z"/>
<path d="M2584 2716 c-11 -8 -47 -24 -79 -35 -74 -26 -126 -60 -160 -105 -76
-99 -34 -217 93 -267 111 -44 462 -25 571 31 96 49 112 142 39 226 -41 46
-168 106 -292 139 -113 29 -143 31 -172 11z m147 -178 l152 -73 -39 -8 c-54
-12 -258 -1 -321 18 -56 17 -63 28 -35 60 15 18 83 75 89 75 1 0 71 -33 154
-72z"/>
<path d="M4090 1230 c-96 -32 -335 -106 -530 -164 -195 -57 -467 -143 -605
-191 -604 -209 -686 -236 -775 -255 -52 -11 -112 -20 -133 -20 -34 0 -38 -3
-35 -22 7 -53 194 -67 378 -29 112 23 217 51 610 161 135 38 335 92 444 120
109 29 206 54 215 57 9 2 -2 -10 -24 -29 -134 -111 -165 -152 -165 -213 0 -81
77 -113 232 -96 140 15 203 14 218 -4 7 -8 16 -44 19 -79 8 -73 22 -96 61 -96
37 0 56 26 64 88 13 102 -12 178 -75 224 -40 30 -94 38 -186 27 -46 -6 -89 -9
-96 -6 -24 8 181 130 413 247 130 65 248 129 264 141 42 33 60 82 46 125 -6
18 -23 43 -37 54 -44 35 -107 27 -303 -40z"/>
</g>
</svg>
