<svg id="svg" version="1.1" xmlns="http://www.w3.org/2000/svg" xmlns:xlink="http://www.w3.org/1999/xlink" width="400" height="700" viewBox="0, 0, 400,700"><g id="svgg"><path id="path0" d="M147.000 120.797 C 147.000 121.235,143.963 122.114,140.250 122.749 C 123.621 125.595,115.498 133.174,113.544 147.669 C 112.889 152.526,112.001 157.287,111.570 158.250 C 111.139 159.212,111.041 160.665,111.353 161.478 C 112.190 163.658,109.817 186.000,108.749 186.000 C 108.246 186.000,107.980 187.912,108.157 190.250 C 108.618 196.346,106.983 213.892,105.891 214.567 C 105.383 214.881,105.034 217.244,105.114 219.819 C 105.329 226.701,103.892 242.337,102.935 243.538 C 102.479 244.109,101.862 250.767,101.564 258.335 C 101.265 265.902,100.627 272.859,100.147 273.796 C 99.666 274.733,98.985 281.808,98.633 289.518 C 98.281 297.228,97.545 305.100,96.997 307.011 C 96.449 308.923,95.968 314.315,95.929 318.993 C 95.890 323.672,95.446 331.100,94.942 335.500 C 94.438 339.900,93.602 352.500,93.083 363.500 C 92.565 374.500,91.620 389.575,90.983 397.000 C 88.341 427.804,90.838 529.918,94.401 536.809 C 102.803 553.057,147.460 550.057,156.725 532.621 C 157.670 530.844,157.561 443.525,156.591 424.763 L 156.191 417.026 160.345 415.951 C 162.630 415.360,167.766 413.979,171.758 412.884 C 175.749 411.788,179.531 411.210,180.162 411.600 C 180.916 412.066,181.034 411.863,180.505 411.009 C 179.885 410.006,180.364 409.863,182.601 410.385 C 184.325 410.787,184.980 410.712,184.217 410.201 C 183.345 409.617,185.266 408.442,190.217 406.531 C 198.142 403.474,218.164 393.397,224.383 389.337 L 228.266 386.802 227.701 389.151 C 227.391 390.443,226.831 393.188,226.457 395.250 C 226.083 397.312,225.329 399.000,224.780 399.000 C 224.207 399.000,224.059 400.099,224.432 401.584 C 224.788 403.005,224.725 403.952,224.290 403.688 C 223.856 403.423,223.452 405.457,223.394 408.206 C 223.336 410.955,222.853 413.496,222.321 413.852 C 220.928 414.786,219.965 417.815,220.943 418.185 C 221.959 418.570,219.974 430.263,218.752 431.097 C 218.270 431.426,218.007 432.776,218.167 434.097 C 218.597 437.659,216.946 450.326,215.881 451.627 C 215.374 452.247,215.081 454.047,215.230 455.627 C 215.664 460.241,213.873 480.336,212.857 482.251 C 211.639 484.548,211.629 559.430,212.848 561.744 C 213.816 563.584,215.553 581.120,215.091 584.401 C 214.944 585.446,215.273 587.246,215.823 588.401 C 216.373 589.555,217.330 593.875,217.951 598.000 C 219.290 606.894,224.456 630.438,225.906 634.252 C 227.215 637.695,234.285 642.817,239.746 644.277 C 242.086 644.903,244.000 645.771,244.000 646.207 C 244.000 647.383,266.769 647.182,267.500 646.000 C 267.840 645.450,268.750 645.000,269.522 645.000 C 272.851 645.000,282.570 640.480,286.103 637.288 C 291.443 632.464,291.657 629.878,288.017 614.184 C 286.318 606.860,284.765 598.985,284.566 596.684 C 284.367 594.383,283.935 591.825,283.607 591.000 C 282.494 588.200,281.234 576.502,282.013 576.202 C 282.856 575.878,282.165 572.109,280.966 570.500 C 278.065 566.604,277.992 465.125,280.888 461.635 C 281.416 460.999,282.101 455.811,282.411 450.107 C 282.720 444.404,283.414 439.207,283.951 438.559 C 284.489 437.911,285.146 433.657,285.411 429.107 C 285.676 424.556,286.348 420.286,286.902 419.618 C 287.457 418.949,288.139 415.949,288.416 412.951 C 290.081 394.977,305.293 339.754,318.056 305.349 C 326.234 283.305,321.537 278.636,291.000 278.450 C 281.375 278.392,274.625 278.640,276.000 279.002 C 278.379 279.629,278.331 279.699,275.000 280.448 C 267.613 282.108,259.527 286.677,257.805 290.164 C 251.961 301.996,214.512 341.442,194.468 356.877 C 188.482 361.486,184.382 364.000,182.850 364.000 C 181.832 364.000,181.000 364.643,181.000 365.429 C 181.000 367.498,178.176 370.005,176.548 369.380 C 174.478 368.586,173.904 366.239,175.411 364.732 C 176.140 364.003,177.050 362.416,177.435 361.206 C 177.819 359.995,179.271 358.719,180.662 358.370 C 182.052 358.021,182.775 357.458,182.269 357.118 C 180.632 356.021,232.415 261.174,236.831 257.179 C 238.299 255.851,238.879 255.106,238.120 255.522 C 237.190 256.032,236.892 255.825,237.204 254.889 C 237.458 254.125,238.154 253.500,238.750 253.500 C 239.346 253.500,240.208 253.090,240.667 252.590 C 241.151 252.061,240.976 251.981,240.250 252.399 C 237.318 254.086,244.568 241.199,272.394 195.259 C 281.802 179.727,290.389 165.467,291.475 163.571 L 293.450 160.123 290.399 156.312 C 288.124 153.469,285.775 151.967,281.159 150.402 C 277.755 149.247,274.677 148.010,274.318 147.652 C 273.337 146.670,252.199 146.869,251.583 147.865 C 251.289 148.341,249.521 148.978,247.655 149.281 C 236.829 151.038,227.828 156.339,225.065 162.587 C 224.040 164.903,222.256 167.744,221.101 168.899 C 219.945 170.055,219.221 171.000,219.490 171.000 C 219.760 171.000,219.306 171.787,218.482 172.750 C 217.658 173.713,216.954 174.950,216.919 175.500 C 216.818 177.061,212.947 183.211,210.154 186.250 C 208.763 187.762,207.923 189.000,208.285 189.000 C 209.036 189.000,206.961 192.717,195.054 212.700 C 190.408 220.496,186.176 226.609,185.649 226.283 C 185.122 225.957,184.982 226.161,185.337 226.736 C 186.367 228.403,174.888 247.411,173.811 245.821 C 173.104 244.777,172.969 244.814,173.166 246.000 C 173.548 248.303,172.082 253.000,170.981 253.000 C 170.441 253.000,170.000 253.589,170.000 254.309 C 170.000 255.029,169.294 256.491,168.432 257.559 C 166.928 259.420,166.887 259.389,167.437 256.807 C 167.752 255.326,167.486 252.966,166.846 251.561 C 165.871 249.422,165.984 248.675,167.540 246.956 C 168.882 245.473,169.321 243.670,169.123 240.452 C 168.942 237.519,169.256 236.000,170.041 236.000 C 170.813 236.000,171.033 235.030,170.664 233.250 C 169.912 229.611,171.874 208.097,173.211 205.322 C 173.788 204.124,174.035 201.966,173.760 200.526 C 173.485 199.085,173.892 192.865,174.666 186.703 C 175.439 180.542,176.504 169.875,177.033 163.000 C 177.561 156.125,178.445 149.195,178.997 147.601 C 183.535 134.485,176.916 124.321,162.555 122.352 C 160.020 122.005,157.706 121.334,157.414 120.860 C 156.744 119.777,147.000 119.717,147.000 120.797 " stroke="none" fill="#000000" fill-rule="evenodd"></path></g></svg>