<svg id="svg" version="1.1" xmlns="http://www.w3.org/2000/svg" xmlns:xlink="http://www.w3.org/1999/xlink" width="400" height="700" viewBox="0, 0, 400,700"><g id="svgg"><path id="path0" d="M218.500 137.585 C 204.381 143.252,205.056 142.357,197.522 165.416 C 182.926 210.090,157.246 261.759,143.126 274.865 C 141.132 276.716,140.287 277.673,141.250 276.993 C 142.213 276.312,143.000 275.954,143.000 276.197 C 143.000 276.976,135.312 286.972,134.898 286.732 C 134.679 286.604,134.599 286.674,134.720 286.887 C 135.088 287.533,130.941 293.016,122.680 302.802 C 108.971 319.042,109.111 325.077,123.297 329.488 C 126.158 330.379,129.281 331.533,130.236 332.053 C 132.374 333.219,156.235 333.319,157.550 332.169 C 158.072 331.711,160.379 330.803,162.676 330.150 C 164.973 329.498,169.136 327.427,171.926 325.550 C 174.717 323.672,176.976 322.667,176.946 323.318 C 176.916 323.968,176.216 331.025,175.390 339.000 C 174.564 346.975,173.475 364.525,172.970 378.000 C 172.465 391.475,171.590 406.355,171.026 411.068 C 169.762 421.620,169.676 478.454,170.913 486.000 C 171.408 489.025,172.099 501.850,172.448 514.500 C 172.797 527.150,173.485 539.075,173.978 541.000 C 174.471 542.925,175.402 546.606,176.047 549.179 C 176.722 551.873,178.328 554.843,179.830 556.179 C 181.265 557.456,181.835 557.712,181.096 556.749 C 180.057 555.394,181.081 555.620,185.627 557.749 C 197.021 563.086,221.114 561.201,231.407 554.167 C 239.668 548.521,241.599 540.767,239.745 520.681 C 237.296 494.149,236.968 481.964,237.279 429.000 C 237.529 386.360,237.930 370.925,238.830 369.275 C 239.587 367.888,240.076 362.243,240.129 354.275 C 240.217 341.296,241.109 330.894,242.788 323.286 C 243.300 320.969,243.409 318.944,243.031 318.786 C 242.652 318.629,242.955 313.325,243.703 307.000 C 244.450 300.675,245.524 290.100,246.088 283.500 C 246.653 276.900,247.539 271.072,248.057 270.550 C 248.576 270.027,249.027 266.877,249.060 263.550 C 249.092 260.222,249.551 255.250,250.078 252.500 C 250.606 249.750,251.244 245.475,251.498 243.000 C 251.751 240.525,252.385 236.925,252.907 235.000 C 253.428 233.075,254.367 227.675,254.993 223.000 C 255.619 218.325,256.525 211.575,257.006 208.000 C 257.487 204.425,259.540 193.175,261.568 183.000 C 266.344 159.029,267.031 148.257,264.050 144.070 C 257.746 135.217,233.131 131.712,218.500 137.585 " stroke="none" fill="#000000" fill-rule="evenodd"></path></g></svg>