<?xml version="1.0" standalone="no"?>
<!DOCTYPE svg PUBLIC "-//W3C//DTD SVG 20010904//EN"
 "http://www.w3.org/TR/2001/REC-SVG-20010904/DTD/svg10.dtd">
<svg version="1.0" xmlns="http://www.w3.org/2000/svg"
 width="343.000000pt" height="600.000000pt" viewBox="0 0 343.000000 600.000000"
 preserveAspectRatio="xMidYMid meet">

<g transform="translate(0.000000,600.000000) scale(0.100000,-0.100000)"
fill="#000000" stroke="none">
<path d="M1915 4730 c-152 -43 -357 -123 -395 -155 -8 -7 -42 -26 -75 -43
l-60 -30 -30 23 c-46 34 -121 55 -199 55 -132 -1 -278 -58 -292 -115 -7 -30 1
-248 15 -390 29 -290 43 -441 49 -542 8 -127 16 -142 92 -176 36 -17 66 -21
150 -21 143 0 191 15 259 80 l54 53 -7 93 c-6 83 -16 224 -31 448 l-5 75 130
95 c199 146 219 159 305 201 97 47 174 64 250 54 51 -6 63 -12 110 -58 69 -67
80 -108 96 -341 12 -177 9 -379 -11 -741 -8 -156 -34 -430 -44 -470 -3 -11
-15 -62 -26 -114 -60 -264 -207 -516 -375 -640 -103 -76 -251 -141 -323 -141
l-30 0 -3 518 -4 517 -23 32 c-70 98 -327 102 -465 6 -67 -46 -69 -57 -63
-296 14 -546 17 -704 11 -733 -5 -27 -14 -35 -71 -59 -87 -37 -124 -74 -124
-125 0 -31 6 -44 35 -69 19 -17 60 -38 91 -47 l57 -16 -8 -323 c-8 -370 -9
-367 72 -406 100 -49 277 -32 385 37 57 37 72 67 80 164 8 91 26 405 27 456 1
29 4 31 54 42 58 12 159 31 227 43 108 19 318 107 453 192 195 121 319 258
419 460 70 142 91 208 133 417 9 47 21 104 26 127 5 23 9 67 9 97 0 30 5 88
10 128 6 40 14 118 20 173 5 55 13 136 19 180 47 402 36 644 -40 883 -65 206
-197 332 -424 406 -73 24 -93 26 -245 25 -149 -1 -175 -4 -265 -29z"/>
</g>
</svg>
