<svg id="svg" version="1.1" xmlns="http://www.w3.org/2000/svg" xmlns:xlink="http://www.w3.org/1999/xlink" width="400" height="700" viewBox="0, 0, 400,700"><g id="svgg"><path id="path0" d="M283.000 103.772 C 283.000 104.197,280.044 105.105,276.431 105.790 C 258.194 109.250,253.806 115.275,244.963 149.000 C 241.911 160.640,242.495 160.663,229.737 148.406 C 223.494 142.408,214.177 134.575,209.032 131.000 C 203.888 127.425,198.926 123.825,198.006 123.000 C 197.086 122.175,195.696 121.368,194.917 121.206 C 194.138 121.044,191.025 119.744,188.000 118.318 C 178.474 113.826,166.103 110.023,156.964 108.779 C 152.113 108.118,148.363 107.222,148.631 106.789 C 148.899 106.355,146.140 106.000,142.500 106.000 C 138.860 106.000,136.121 106.386,136.412 106.858 C 136.704 107.330,134.143 107.989,130.721 108.322 C 123.066 109.067,114.808 111.209,106.113 114.705 C 102.476 116.168,98.703 117.310,97.728 117.243 C 96.754 117.176,96.207 117.527,96.514 118.022 C 96.820 118.518,95.334 119.809,93.211 120.893 C 74.040 130.673,59.000 157.457,59.000 181.815 C 59.001 219.928,83.463 252.991,130.402 278.322 C 137.883 282.359,143.680 285.987,143.283 286.384 C 142.886 286.781,143.277 286.831,144.152 286.495 C 145.026 286.160,146.475 286.618,147.371 287.514 C 148.267 288.410,149.000 288.926,149.000 288.661 C 149.000 285.216,214.797 319.017,218.566 324.398 C 219.355 325.524,220.000 326.081,220.000 325.636 C 220.000 319.754,260.142 361.741,261.682 369.234 C 261.991 370.737,262.639 371.723,263.122 371.425 C 263.605 371.126,264.000 371.646,264.000 372.581 C 264.000 373.515,264.642 374.779,265.427 375.390 C 277.531 384.807,289.545 441.188,285.055 467.500 C 284.398 471.350,283.656 476.075,283.405 478.000 C 281.701 491.089,272.751 516.768,267.894 522.500 C 266.962 523.600,266.016 525.400,265.790 526.500 C 265.565 527.600,264.898 528.405,264.308 528.289 C 263.718 528.173,263.295 528.848,263.368 529.789 C 263.440 530.730,262.954 531.393,262.286 531.262 C 261.537 531.115,261.315 531.657,261.706 532.676 C 262.081 533.654,261.932 534.076,261.342 533.711 C 260.793 533.372,259.581 534.822,258.649 536.935 C 256.731 541.282,242.059 556.396,237.500 558.720 C 235.850 559.561,232.700 561.705,230.500 563.483 C 223.611 569.054,206.133 576.819,203.771 575.358 C 203.224 575.020,202.408 575.340,201.957 576.070 C 200.906 577.770,180.013 578.052,177.906 576.394 C 177.133 575.786,174.286 574.748,171.581 574.087 C 156.823 570.483,141.087 554.013,133.054 533.762 C 131.802 530.605,131.047 527.320,131.377 526.460 C 131.707 525.600,131.584 525.139,131.103 525.436 C 129.523 526.413,129.214 521.027,129.055 489.653 C 128.969 472.598,128.650 458.243,128.348 457.755 C 128.046 457.266,128.390 453.858,129.113 450.183 C 130.383 443.725,130.452 443.618,131.160 447.000 C 131.775 449.936,131.839 449.713,131.555 445.619 C 130.841 435.331,139.317 414.775,148.103 405.485 C 161.591 391.223,183.787 390.466,190.819 404.027 C 193.577 409.345,193.504 423.154,190.690 428.500 C 189.821 430.150,188.839 433.075,188.507 435.000 C 187.016 443.657,173.519 466.519,162.929 478.327 C 158.446 483.325,153.926 493.400,157.026 491.484 C 157.437 491.230,158.357 491.725,159.070 492.584 C 167.420 502.645,201.831 504.066,216.568 494.958 C 222.834 491.085,236.400 474.656,242.544 463.500 C 244.665 459.650,246.734 456.358,247.143 456.185 C 247.553 456.012,247.611 455.151,247.274 454.271 C 246.833 453.123,247.034 452.903,247.985 453.490 C 248.846 454.023,249.070 453.922,248.624 453.200 C 247.685 451.681,248.989 446.875,250.147 447.591 C 250.697 447.931,250.799 447.047,250.394 445.435 C 250.008 443.897,250.100 442.940,250.604 443.247 C 251.097 443.546,251.627 441.251,251.782 438.146 C 251.937 435.041,252.500 432.350,253.032 432.167 C 254.244 431.749,254.324 419.000,253.115 419.000 C 252.403 419.000,250.763 411.016,250.548 406.500 C 250.521 405.950,250.236 405.275,249.914 405.000 C 248.526 403.816,246.999 397.759,248.310 398.638 C 249.016 399.112,248.852 398.806,247.944 397.959 C 245.311 395.500,243.109 391.036,245.497 393.000 C 247.211 394.410,247.239 394.368,245.961 392.315 C 245.212 391.113,244.295 390.318,243.922 390.548 C 243.549 390.779,242.018 389.114,240.519 386.850 C 233.755 376.628,223.235 367.910,210.030 361.582 C 205.968 359.635,202.281 357.470,201.837 356.771 C 201.295 355.916,201.026 355.878,201.015 356.652 C 201.004 357.473,199.634 357.371,196.250 356.298 C 186.398 353.174,157.196 352.381,152.000 355.096 C 151.175 355.527,147.125 356.847,143.000 358.028 C 109.758 367.547,73.665 401.929,67.514 429.935 C 67.161 431.545,66.230 433.394,65.447 434.044 C 64.663 434.695,64.274 435.634,64.582 436.133 C 64.890 436.631,64.668 438.493,64.090 440.270 C 59.425 454.583,57.730 484.071,60.555 501.761 C 71.116 567.902,112.983 613.521,170.585 621.650 L 176.500 622.484 170.500 623.074 C 167.200 623.398,176.875 623.656,192.000 623.647 C 207.125 623.638,217.025 623.446,214.000 623.220 L 208.500 622.811 219.628 620.482 C 269.965 609.951,317.071 566.497,337.499 511.750 C 338.474 509.137,339.646 507.000,340.104 507.000 C 340.562 507.000,340.678 506.325,340.362 505.500 C 340.045 504.675,340.270 504.000,340.862 504.000 C 341.453 504.000,341.678 503.325,341.362 502.500 C 341.045 501.675,341.242 501.000,341.799 501.000 C 342.357 501.000,342.559 500.030,342.249 498.844 C 341.891 497.477,342.070 496.925,342.736 497.337 C 343.356 497.720,343.768 497.065,343.741 495.743 C 343.715 494.510,344.904 487.741,346.382 480.701 C 347.861 473.662,349.347 464.309,349.686 459.917 C 350.025 455.525,350.684 451.695,351.151 451.407 C 352.354 450.663,352.214 431.251,351.000 430.500 C 350.450 430.160,350.000 428.153,350.000 426.040 C 350.000 423.927,349.042 416.867,347.872 410.349 C 346.701 403.832,345.613 397.375,345.453 396.000 C 345.293 394.625,345.070 393.387,344.956 393.250 C 344.843 393.113,344.637 392.550,344.500 392.000 C 344.363 391.450,344.146 390.663,344.019 390.250 C 343.892 389.837,343.828 388.150,343.877 386.500 C 343.950 384.021,343.822 383.845,343.138 385.484 C 342.422 387.200,342.135 386.929,341.019 383.484 C 339.212 377.906,331.880 362.327,328.692 357.292 C 327.227 354.978,325.909 352.591,325.764 351.988 C 325.045 349.003,306.182 328.207,296.932 320.203 C 282.540 307.748,253.630 289.346,229.210 277.096 C 223.991 274.478,221.178 272.522,221.615 271.814 C 222.028 271.146,221.860 270.969,221.200 271.376 C 220.235 271.973,196.334 260.798,195.000 259.127 C 194.725 258.782,190.925 256.700,186.556 254.500 C 165.564 243.929,135.071 219.991,130.602 210.574 C 129.772 208.825,128.192 206.579,127.090 205.581 C 115.087 194.718,118.939 161.999,133.263 153.146 C 137.060 150.800,146.786 148.918,145.655 150.749 C 145.243 151.416,145.730 151.622,146.962 151.300 C 159.148 148.113,195.210 188.906,217.121 230.662 C 219.960 236.073,224.244 244.232,226.642 248.793 C 229.039 253.354,231.000 257.814,231.000 258.704 C 231.000 261.278,236.836 265.794,242.393 267.521 C 245.202 268.393,248.281 269.533,249.236 270.053 C 251.548 271.314,264.715 271.270,265.500 270.000 C 265.840 269.450,267.006 269.000,268.091 269.000 C 275.597 269.000,290.067 261.024,292.743 255.412 C 293.638 253.535,294.737 252.000,295.185 252.000 C 295.633 252.000,296.000 248.204,296.000 243.565 C 296.000 238.926,296.449 233.950,296.997 232.508 C 297.735 230.568,297.693 230.072,296.836 230.601 C 295.972 231.136,295.850 228.694,296.358 220.956 C 296.744 215.061,297.523 210.295,298.165 209.898 C 298.857 209.470,299.067 207.798,298.706 205.578 C 298.302 203.084,298.460 202.166,299.214 202.632 C 299.896 203.054,300.022 202.844,299.547 202.075 C 298.385 200.196,299.941 187.846,301.238 188.647 C 301.951 189.088,302.101 188.500,301.682 186.906 C 300.952 184.130,302.953 172.000,304.141 172.000 C 304.579 172.000,304.702 171.388,304.416 170.641 C 303.374 167.927,315.470 126.226,318.075 123.550 C 319.322 122.269,319.258 115.000,318.000 115.000 C 317.450 115.000,317.000 114.426,317.000 113.723 C 317.000 111.572,308.915 107.061,302.795 105.797 C 299.608 105.138,297.000 104.240,297.000 103.800 C 297.000 103.360,293.850 103.000,290.000 103.000 C 286.150 103.000,283.000 103.347,283.000 103.772 M127.890 486.250 C 127.808 506.075,127.540 511.399,126.796 508.000 C 124.994 499.767,125.643 460.000,127.580 460.000 C 127.811 460.000,127.951 471.813,127.890 486.250 " stroke="none" fill="#000000" fill-rule="evenodd"></path></g></svg>