<svg id="svg" version="1.1" xmlns="http://www.w3.org/2000/svg" xmlns:xlink="http://www.w3.org/1999/xlink" width="400" height="700" viewBox="0, 0, 400,700"><g id="svgg"><path id="path0" d="M90.917 85.410 C 90.688 85.635,88.250 86.020,85.500 86.264 C 82.750 86.508,79.600 87.059,78.500 87.489 C 60.463 94.531,59.168 96.950,63.033 116.389 C 65.333 127.954,65.269 127.284,64.003 126.502 C 63.340 126.092,63.340 126.765,64.003 128.508 C 64.551 129.950,65.000 132.477,65.000 134.124 C 65.000 135.771,65.411 136.864,65.914 136.553 C 67.056 135.847,68.500 150.382,67.455 152.072 C 67.004 152.802,67.103 153.054,67.695 152.688 C 68.339 152.290,68.529 153.849,68.223 157.029 C 67.901 160.380,68.193 162.528,69.123 163.649 C 71.166 166.111,71.156 234.668,69.113 235.931 C 68.110 236.550,67.860 238.195,68.213 241.860 C 68.510 244.957,68.327 246.702,67.743 246.341 C 67.170 245.987,67.068 246.638,67.489 247.965 C 68.359 250.705,67.079 266.167,66.036 265.522 C 65.302 265.069,64.792 272.391,64.595 286.196 C 64.484 294.042,67.757 298.596,75.684 301.623 C 78.058 302.530,80.000 303.595,80.000 303.989 C 80.000 305.880,107.488 304.333,113.167 302.124 C 123.268 298.193,128.950 291.631,129.060 283.770 C 129.092 281.421,129.567 277.250,130.115 274.500 C 133.731 256.335,135.978 224.687,136.060 190.747 L 136.124 163.993 138.312 164.499 C 143.235 165.638,187.231 176.298,212.000 182.353 C 226.575 185.915,243.787 190.084,250.250 191.616 C 256.712 193.147,262.000 194.751,262.000 195.180 C 262.000 195.608,257.372 204.405,251.715 214.729 C 246.058 225.053,240.110 236.054,238.497 239.175 C 236.884 242.296,235.218 244.635,234.794 244.373 C 234.370 244.111,234.221 244.482,234.464 245.198 C 234.706 245.914,229.403 256.850,222.679 269.500 L 210.453 292.500 202.976 296.204 C 198.864 298.242,194.525 299.929,193.333 299.954 C 192.142 299.979,191.017 300.369,190.833 300.821 C 190.444 301.779,172.712 308.457,158.917 312.840 C 137.128 319.764,105.911 326.697,101.506 325.591 C 100.219 325.268,99.016 325.419,98.833 325.927 C 98.365 327.224,80.301 329.085,75.590 328.321 C 72.498 327.819,71.859 327.963,72.509 329.014 C 73.095 329.963,72.879 330.168,71.747 329.733 C 70.837 329.384,69.932 329.736,69.614 330.563 C 69.311 331.353,68.443 332.000,67.686 332.000 C 66.929 332.000,65.495 332.900,64.500 334.000 C 63.505 335.100,62.961 336.000,63.292 336.000 C 63.622 336.000,62.606 338.448,61.032 341.439 C 59.458 344.431,57.643 349.494,56.999 352.689 C 56.355 355.885,55.416 359.281,54.914 360.236 C 53.753 362.442,53.714 373.705,54.865 374.417 C 55.341 374.711,55.993 376.572,56.315 378.552 C 57.308 384.675,61.690 390.975,66.406 393.062 C 75.591 397.124,118.233 390.443,153.302 379.446 C 163.824 376.147,164.589 376.194,162.341 380.000 C 161.366 381.650,160.141 383.000,159.618 383.000 C 159.095 383.000,158.960 383.294,159.319 383.653 C 159.973 384.306,154.883 394.099,152.339 397.086 C 151.596 397.958,149.657 401.417,148.032 404.773 C 141.837 417.561,120.948 451.307,122.512 446.000 C 123.357 443.133,122.818 443.450,121.036 446.871 C 120.240 448.399,120.191 449.000,120.900 448.562 C 121.505 448.188,122.000 448.193,122.000 448.573 C 122.000 450.415,97.033 489.157,79.206 514.977 C 57.735 546.074,56.169 550.935,61.966 568.500 C 70.643 594.796,84.493 604.498,98.144 593.844 C 100.148 592.280,102.511 591.000,103.394 591.000 C 104.277 591.000,105.000 590.391,105.000 589.646 C 105.000 586.354,137.456 567.272,158.000 558.484 C 180.589 548.822,229.000 535.004,229.000 538.219 C 229.000 538.775,230.034 538.553,231.297 537.725 C 233.891 536.025,246.364 533.819,248.577 534.668 C 249.374 534.974,250.582 534.778,251.263 534.233 C 252.846 532.966,264.492 531.716,273.420 531.855 C 277.225 531.915,280.923 531.479,281.637 530.886 C 282.467 530.197,290.046 529.810,302.680 529.810 C 324.892 529.810,334.224 528.223,341.363 523.233 C 343.514 521.730,346.268 519.946,347.484 519.268 C 350.709 517.473,350.105 505.660,345.811 486.510 C 345.196 483.765,344.334 478.815,343.896 475.510 C 343.458 472.204,342.427 465.480,341.604 460.568 C 340.781 455.655,340.347 451.248,340.640 450.774 C 340.933 450.300,340.689 449.330,340.099 448.619 C 339.509 447.908,338.593 441.965,338.065 435.413 C 337.536 428.861,336.620 420.350,336.030 416.500 C 335.440 412.650,334.915 405.450,334.865 400.500 C 334.814 395.550,334.367 390.150,333.872 388.500 C 333.376 386.850,332.633 375.736,332.220 363.803 C 331.350 338.659,331.250 338.374,321.637 333.681 C 313.890 329.898,301.784 329.047,291.000 331.525 C 286.875 332.473,282.490 333.241,281.257 333.231 C 280.023 333.221,279.242 333.582,279.521 334.034 C 279.800 334.486,279.077 335.158,277.913 335.528 C 276.001 336.134,270.537 341.159,267.209 345.370 C 265.544 347.477,266.146 378.881,268.273 400.852 C 269.091 409.295,269.528 417.087,269.246 418.168 C 268.963 419.248,269.187 421.114,269.743 422.316 C 270.299 423.517,271.767 433.275,273.005 444.000 C 274.244 454.725,275.312 463.950,275.379 464.500 C 275.452 465.103,271.199 465.574,264.678 465.687 C 258.726 465.790,253.278 466.354,252.572 466.941 C 251.865 467.527,247.960 468.092,243.893 468.197 C 239.827 468.301,235.825 468.728,235.000 469.145 C 232.556 470.380,220.000 471.738,220.000 470.768 C 220.000 470.283,218.762 470.563,217.250 471.390 C 215.738 472.216,209.775 473.851,204.000 475.022 C 198.225 476.194,190.225 477.999,186.222 479.034 C 182.219 480.069,178.208 480.633,177.308 480.288 C 176.298 479.900,175.921 480.063,176.322 480.712 C 176.885 481.623,169.101 484.435,168.283 483.616 C 168.128 483.461,173.319 474.146,179.820 462.917 C 186.321 451.688,196.518 433.725,202.480 423.000 C 208.442 412.275,214.007 402.939,214.846 402.254 C 215.684 401.569,216.432 400.219,216.507 399.254 C 216.626 397.739,240.706 352.305,246.171 343.286 C 248.279 339.807,266.129 329.344,267.992 330.495 C 268.546 330.838,269.000 330.660,269.000 330.101 C 269.000 328.965,269.149 328.878,298.686 312.592 C 320.821 300.387,324.637 297.388,327.935 289.603 C 335.172 272.520,334.130 250.717,325.638 241.554 C 323.247 238.974,312.703 237.660,311.833 239.833 C 311.384 240.956,298.000 248.357,298.000 247.482 C 298.000 245.778,311.409 223.135,312.148 223.591 C 312.604 223.873,312.681 223.332,312.319 222.388 C 311.836 221.132,312.015 220.891,312.985 221.490 C 313.869 222.037,314.070 221.923,313.591 221.148 C 313.193 220.503,316.631 212.985,321.322 204.243 C 326.865 193.915,330.355 186.092,331.470 181.500 C 332.405 177.650,333.582 173.719,334.085 172.764 C 335.283 170.490,335.263 161.455,334.055 159.236 C 333.535 158.281,332.849 155.863,332.530 153.862 C 330.942 143.879,321.584 138.063,301.500 134.575 C 293.413 133.170,240.559 119.879,239.471 118.976 C 238.836 118.449,238.086 118.248,237.804 118.529 C 237.522 118.811,234.864 118.518,231.896 117.878 C 227.508 116.932,226.874 116.555,228.500 115.860 C 229.967 115.233,229.677 115.149,227.413 115.546 C 223.743 116.190,123.074 92.313,115.892 89.096 C 109.962 86.440,92.491 83.861,90.917 85.410 M296.250 328.742 C 299.962 328.934,306.038 328.934,309.750 328.742 C 313.462 328.549,310.425 328.392,303.000 328.392 C 295.575 328.392,292.538 328.549,296.250 328.742 " stroke="none" fill="#000000" fill-rule="evenodd"></path></g></svg>